<svg width="113" height="132" viewBox="0 0 113 132" fill="none" xmlns="http://www.w3.org/2000/svg">
<path d="M95.467 46.771C95.693 45.023 95.806 43.217 95.806 41.404C95.806 40.747 95.793 40.091 95.756 39.448C95.756 39.44 95.755 39.432 95.754 39.424C95.754 39.42 95.754 39.415 95.753 39.411C94.711 17.308 76.555 0 54.402 0C32.825 0 15.102 16.182 13.175 37.64C13.059 38.919 13 40.186 13 41.403C13 42.5 13.044 43.603 13.137 44.773C13.333 47.305 13.778 49.84 14.454 52.305C15.491 56.117 17.063 59.695 19.076 62.964C19.939 64.365 20.883 65.71 21.899 66.992C22.239 67.419 22.586 67.84 22.941 68.253C30.397 76.931 41.331 82.449 53.184 82.794C53.186 82.794 53.188 82.794 53.19 82.794C53.202 82.794 53.213 82.794 53.225 82.794C53.615 82.806 54.014 82.806 54.402 82.806C55.796 82.806 57.179 82.738 58.55 82.603C59.606 82.498 60.652 82.341 61.691 82.157C62.677 81.982 63.658 81.784 64.627 81.538C66.619 81.031 68.576 80.375 70.488 79.569C71.779 79.023 73.034 78.418 74.252 77.754C76.078 76.756 77.821 75.626 79.473 74.367C81.125 73.109 82.687 71.721 84.151 70.211C84.152 70.209 84.152 70.209 84.153 70.207C88.383 65.85 91.653 60.515 93.612 54.773C93.617 54.757 93.621 54.742 93.627 54.727C93.627 54.727 93.628 54.724 93.628 54.722C94.491 52.143 95.111 49.469 95.467 46.771ZM83.379 67.023C81.86 64.618 80.197 62.312 78.41 60.135C82.096 58.115 86.057 56.732 90.234 56.014C88.593 60.026 86.256 63.773 83.379 67.023ZM81.104 69.386C80.896 69.584 80.687 69.781 80.475 69.974C80.22 70.206 79.961 70.437 79.701 70.662C79.486 70.849 79.27 71.033 79.053 71.215C78.785 71.437 78.513 71.653 78.24 71.867C78.02 72.039 77.801 72.213 77.577 72.379C77.294 72.592 77.006 72.797 76.718 73.001C76.496 73.158 76.276 73.316 76.05 73.469C75.747 73.674 75.439 73.869 75.13 74.066C74.91 74.206 74.693 74.347 74.471 74.483C74.141 74.682 73.804 74.873 73.468 75.063C73.258 75.182 73.052 75.305 72.841 75.419C72.463 75.623 72.077 75.816 71.692 76.009C71.514 76.098 71.34 76.193 71.161 76.279C71.003 76.355 70.84 76.423 70.681 76.497C67.944 69.899 64 63.974 58.911 58.885C47.483 47.458 31.824 41.796 15.77 43.193C15.742 42.588 15.723 41.991 15.723 41.403C15.723 40.686 15.753 39.946 15.797 39.2C15.802 39.109 15.81 39.017 15.816 38.926C30.047 36.638 44.741 39.159 57.316 46.068C60.841 48 64.187 50.266 67.259 52.803C67.294 52.833 67.332 52.86 67.37 52.886C69.003 54.238 70.561 55.654 72.004 57.097C73.149 58.241 74.256 59.432 75.297 60.639C77.548 63.248 79.614 66.072 81.448 69.047C81.333 69.16 81.22 69.275 81.104 69.386ZM67.893 77.663C67.644 77.756 67.393 77.842 67.143 77.93C66.81 78.046 66.476 78.159 66.141 78.266C65.885 78.348 65.628 78.425 65.37 78.501C65.036 78.6 64.7 78.694 64.363 78.783C64.103 78.853 63.843 78.92 63.583 78.982C63.243 79.066 62.901 79.142 62.56 79.215C62.3 79.271 62.04 79.326 61.779 79.376C61.429 79.444 61.079 79.503 60.727 79.562C60.47 79.603 60.214 79.648 59.957 79.685C59.59 79.737 59.221 79.779 58.852 79.822C58.608 79.849 58.365 79.882 58.121 79.904C57.71 79.943 57.298 79.97 56.885 79.996C56.68 80.009 56.476 80.027 56.27 80.037C55.65 80.066 55.029 80.084 54.404 80.084C54.353 80.083 54.297 80.082 54.245 80.082C52.344 73.51 48.795 67.478 43.9 62.597C36.63 55.339 27.063 51.123 16.861 50.636C16.731 50.108 16.597 49.581 16.49 49.049C16.456 48.879 16.42 48.709 16.388 48.538C16.232 47.706 16.102 46.871 16.003 46.034C15.997 45.985 15.993 45.936 15.988 45.888C31.251 44.558 46.126 49.953 56.983 60.811C61.821 65.65 65.587 71.276 68.186 77.55C68.087 77.585 67.99 77.626 67.893 77.663ZM51.184 79.947C50.295 79.872 49.412 79.772 48.537 79.636C48.506 79.63 48.474 79.624 48.443 79.618C47.561 79.479 46.688 79.307 45.823 79.107C45.763 79.093 45.703 79.083 45.643 79.068C44.798 78.869 43.965 78.636 43.14 78.381C43.036 78.35 42.931 78.319 42.827 78.286C42.028 78.032 41.241 77.75 40.464 77.445C40.345 77.398 40.225 77.352 40.107 77.304C39.339 76.995 38.585 76.662 37.84 76.306C37.723 76.25 37.607 76.193 37.49 76.136C36.745 75.771 36.011 75.383 35.292 74.972C35.195 74.915 35.1 74.858 35.002 74.801C34.269 74.372 33.546 73.923 32.842 73.448C32.782 73.408 32.725 73.366 32.666 73.325C31.198 72.323 29.8 71.222 28.48 70.032C28.422 69.98 28.364 69.93 28.307 69.879C27.684 69.31 27.082 68.717 26.496 68.108C26.414 68.022 26.331 67.938 26.25 67.852C25.685 67.254 25.14 66.637 24.613 66.003C24.526 65.899 24.439 65.794 24.353 65.689C23.836 65.055 23.339 64.404 22.863 63.737C22.784 63.627 22.707 63.514 22.63 63.403C22.155 62.725 21.7 62.032 21.27 61.322C21.209 61.222 21.153 61.121 21.093 61.021C20.655 60.285 20.238 59.536 19.849 58.768C19.819 58.708 19.79 58.647 19.761 58.587C19.369 57.803 19.001 57.004 18.662 56.19C18.646 56.153 18.63 56.117 18.614 56.08C18.278 55.265 17.975 54.434 17.695 53.591C17.674 53.526 17.65 53.461 17.629 53.396C26.816 54.049 35.4 57.959 41.975 64.522C46.328 68.864 49.556 74.171 51.386 79.963C51.318 79.96 51.251 79.953 51.184 79.947ZM18.519 26.869L33.916 29.1C33.865 29.605 33.833 30.115 33.833 30.629C33.833 32.458 34.17 34.257 34.805 35.947C28.618 35.151 22.315 35.209 16.085 36.143C16.521 32.895 17.352 29.79 18.519 26.869ZM47.01 15.713C44.573 16.021 42.236 16.909 40.211 18.326L32.599 9.372C36.996 6.39 42.045 4.303 47.492 3.336L47.01 15.713ZM40.89 21.235C43.131 19.345 45.973 18.304 48.894 18.304C51.178 18.304 53.416 18.935 55.36 20.126C57.55 21.484 59.298 23.534 60.278 25.892L60.279 25.895L60.28 25.897C60.903 27.419 61.22 29.01 61.22 30.628C61.22 30.893 61.208 31.158 61.185 31.44C60.91 35.802 58.362 39.644 54.496 41.611C49.246 39.185 43.708 37.454 38.034 36.445C37.081 34.664 36.556 32.673 36.556 30.628C36.556 27.017 38.139 23.59 40.89 21.235ZM93.065 40.726C93.069 40.952 93.083 41.178 93.083 41.404C93.083 42.686 93.002 43.954 92.882 45.205C84.41 44.933 75.969 46.639 68.328 50.179C66.013 48.317 63.561 46.599 60.999 45.055C71.116 40.928 82.124 39.441 93.065 40.726ZM91.275 53.11C86.06 53.813 81.137 55.463 76.61 58.025C75.746 57.055 74.854 56.095 73.929 55.171C72.894 54.135 71.785 53.123 70.65 52.128C77.514 49.158 85.003 47.719 92.531 47.92C92.23 49.676 91.809 51.413 91.275 53.11ZM82.762 15.072L79.752 16.324C79.057 16.613 78.729 17.41 79.017 18.104C79.235 18.627 79.742 18.943 80.276 18.943C80.45 18.943 80.627 18.909 80.797 18.838L84.638 17.241C89.244 23.005 92.235 30.133 92.921 37.966C80.969 36.647 68.954 38.5 58.022 43.365C57.818 43.255 57.611 43.15 57.405 43.043C60.838 40.696 63.153 37.029 63.764 32.888H83.172C83.924 32.888 84.533 32.278 84.533 31.526C84.533 30.774 83.924 30.164 83.172 30.164H63.92C63.878 28.798 63.661 27.45 63.252 26.136L72.458 22.312C73.152 22.023 73.481 21.226 73.193 20.532C72.905 19.838 72.109 19.508 71.413 19.797L62.207 23.621C61.217 21.748 59.823 20.089 58.15 18.773L70.288 6.119C75.031 8.25 79.267 11.309 82.762 15.072ZM67.571 5.018L55.823 17.266C53.934 16.291 51.862 15.728 49.739 15.609L50.231 2.95C51.602 2.805 52.992 2.724 54.402 2.724C59.024 2.724 63.458 3.535 67.571 5.018ZM30.397 10.987L38.142 20.097C36.395 21.886 35.141 24.06 34.453 26.425L19.665 24.283C22.217 19.055 25.901 14.528 30.397 10.987Z" fill="#411611"/>
<path d="M11.1621 93.7227C12.2754 93.7227 13.3242 93.8516 14.3086 94.1094C15.3047 94.3672 16.1836 94.7773 16.9453 95.3398C17.7188 95.9141 18.3223 96.6406 18.7559 97.5195C19.2012 98.3984 19.4238 99.4355 19.4238 100.631C19.4238 101.826 19.2012 102.863 18.7559 103.742C18.3223 104.621 17.7188 105.348 16.9453 105.922C16.3477 106.367 15.6797 106.713 14.9414 106.959C14.2148 107.205 13.4355 107.375 12.6035 107.469L12.5859 107.504C12.9258 107.727 13.3008 108.043 13.7109 108.453C14.1211 108.852 14.5488 109.326 14.9941 109.877C15.4395 110.428 15.8965 111.025 16.3652 111.67C16.834 112.303 17.3086 112.971 17.7891 113.674L21.4453 119H17.5781L13.6055 112.848C12.8906 111.723 12.2695 110.814 11.7422 110.123C11.2266 109.432 10.7344 108.887 10.2656 108.488C9.80859 108.09 9.33984 107.82 8.85938 107.68C8.37891 107.539 7.82227 107.469 7.18945 107.469H6.52148V119H3.25195V93.7227H11.1621ZM11.1621 104.902C11.9004 104.902 12.5742 104.82 13.1836 104.656C13.793 104.492 14.3145 104.24 14.748 103.9C15.1934 103.549 15.5391 103.104 15.7852 102.564C16.0312 102.025 16.1543 101.381 16.1543 100.631C16.1543 99.8809 16.0312 99.2363 15.7852 98.6973C15.5391 98.1582 15.1934 97.7188 14.748 97.3789C14.3145 97.0273 13.793 96.7695 13.1836 96.6055C12.5742 96.4414 11.9004 96.3594 11.1621 96.3594H6.52148V104.902H11.1621ZM40.5 118.684L37.582 119.334C37.3594 118.631 37.2012 117.951 37.1074 117.295C37.0605 116.99 37.002 116.369 36.9316 115.432H36.5625C35.918 116.615 35.1211 117.559 34.1719 118.262C33.1289 119.035 32.0273 119.422 30.8672 119.422C29.1211 119.422 27.791 119 26.877 118.156C26.0918 117.441 25.5469 116.346 25.2422 114.869C25.043 113.861 24.9434 112.361 24.9434 110.369V100.719H27.9668V111.213C27.9668 112.959 28.1367 114.207 28.4766 114.957C28.9805 116.07 29.9941 116.627 31.5176 116.627C32.5957 116.627 33.6504 116.111 34.6816 115.08C35.373 114.389 36.1113 113.375 36.8965 112.039V100.719H39.9199V112.004C39.9199 113.562 39.9609 114.916 40.043 116.064C40.0898 116.779 40.2422 117.652 40.5 118.684ZM49.0254 104.955C49.3887 104.229 49.7754 103.572 50.1855 102.986C50.6074 102.4 51.0703 101.902 51.5742 101.492C52.0312 101.094 52.5352 100.801 53.0859 100.613C53.6367 100.414 54.2637 100.314 54.9668 100.314C55.2012 100.314 55.4707 100.326 55.7754 100.35C56.0918 100.373 56.3906 100.414 56.6719 100.473C56.625 101.059 56.5664 101.609 56.4961 102.125C56.4375 102.641 56.3555 103.162 56.25 103.689C55.6641 103.584 55.125 103.508 54.6328 103.461C54.1523 103.414 53.6953 103.426 53.2617 103.496C52.7461 103.59 52.2949 103.766 51.9082 104.023C51.5332 104.27 51.1816 104.604 50.8535 105.025C50.5371 105.436 50.2266 105.934 49.9219 106.52C49.6172 107.094 49.2832 107.756 48.9199 108.506V119H45.8965V107.732C45.8965 106.994 45.8848 106.344 45.8613 105.781C45.8496 105.219 45.8145 104.686 45.7559 104.182C45.709 103.666 45.6328 103.162 45.5273 102.67C45.4219 102.166 45.2812 101.609 45.1055 101C45.5977 100.871 46.0781 100.754 46.5469 100.648C47.0273 100.543 47.5137 100.443 48.0059 100.35C48.1699 100.818 48.2988 101.234 48.3926 101.598C48.498 101.961 48.5801 102.318 48.6387 102.67C48.6973 103.01 48.7383 103.361 48.7617 103.725C48.7969 104.076 48.832 104.486 48.8672 104.955H49.0254ZM61.4707 103.953L60.6973 101.492C62.666 100.707 64.7285 100.314 66.8848 100.314C68.7715 100.314 70.2129 100.631 71.209 101.264C72.3457 101.99 72.9141 103.227 72.9141 104.973V112.162C72.9141 113.123 72.9258 114.107 72.9492 115.115C72.9609 115.713 73.0195 116.334 73.125 116.979C73.2188 117.588 73.3418 118.168 73.4941 118.719L70.6113 119.352C70.3418 118.566 70.1719 117.688 70.1016 116.715L69.75 116.68C68.2969 118.508 66.4453 119.422 64.1953 119.422C62.5547 119.422 61.2363 118.971 60.2402 118.068C59.2441 117.154 58.7461 115.871 58.7461 114.219C58.7461 112.988 59.0156 111.98 59.5547 111.195C60.1055 110.41 60.8789 109.748 61.875 109.209C63.4453 108.354 65.6426 107.926 68.4668 107.926C68.8418 107.926 69.3457 107.938 69.9785 107.961V105.289C69.9785 104.445 69.7207 103.836 69.2051 103.461C68.6895 103.086 67.8809 102.898 66.7793 102.898C65.1738 102.898 63.4043 103.25 61.4707 103.953ZM69.9785 113.867V110.176C69.6621 110.152 69.1992 110.141 68.5898 110.141C67.5586 110.141 66.6094 110.229 65.7422 110.404C64.4531 110.662 63.4512 111.072 62.7363 111.635C62.0332 112.186 61.6816 112.982 61.6816 114.025C61.6816 115.9 62.7012 116.838 64.7402 116.838C65.7949 116.838 66.7793 116.557 67.6934 115.994C68.4434 115.525 69.2051 114.816 69.9785 113.867ZM81.2461 111.898C81.2461 112.859 81.2578 113.668 81.2812 114.324C81.3047 114.969 81.334 115.537 81.3691 116.029C81.4043 116.521 81.457 116.967 81.5273 117.365C81.6094 117.764 81.709 118.203 81.8262 118.684C81.334 118.812 80.8418 118.93 80.3496 119.035C79.8574 119.152 79.3652 119.252 78.873 119.334C78.6387 118.572 78.4688 117.875 78.3633 117.242C78.2695 116.609 78.2227 115.988 78.2227 115.379V93.7227H81.2461V111.898ZM88.8574 93.6348C89.3965 93.6348 89.8652 93.8223 90.2637 94.1973C90.6504 94.6074 90.8438 95.0879 90.8438 95.6387C90.8438 96.2012 90.6504 96.6758 90.2637 97.0625C89.8652 97.4609 89.3965 97.6602 88.8574 97.6602C88.2949 97.6602 87.8145 97.4609 87.416 97.0625C87.0176 96.6875 86.8184 96.2129 86.8184 95.6387C86.8184 95.0762 87.0176 94.5957 87.416 94.1973C87.8145 93.8223 88.2949 93.6348 88.8574 93.6348ZM87.3105 100.719H90.334V119H87.3105V100.719ZM97.7168 103.953L96.9434 101.492C98.9121 100.707 100.975 100.314 103.131 100.314C105.018 100.314 106.459 100.631 107.455 101.264C108.592 101.99 109.16 103.227 109.16 104.973V112.162C109.16 113.123 109.172 114.107 109.195 115.115C109.207 115.713 109.266 116.334 109.371 116.979C109.465 117.588 109.588 118.168 109.74 118.719L106.857 119.352C106.588 118.566 106.418 117.688 106.348 116.715L105.996 116.68C104.543 118.508 102.691 119.422 100.441 119.422C98.8008 119.422 97.4824 118.971 96.4863 118.068C95.4902 117.154 94.9922 115.871 94.9922 114.219C94.9922 112.988 95.2617 111.98 95.8008 111.195C96.3516 110.41 97.125 109.748 98.1211 109.209C99.6914 108.354 101.889 107.926 104.713 107.926C105.088 107.926 105.592 107.938 106.225 107.961V105.289C106.225 104.445 105.967 103.836 105.451 103.461C104.936 103.086 104.127 102.898 103.025 102.898C101.42 102.898 99.6504 103.25 97.7168 103.953ZM106.225 113.867V110.176C105.908 110.152 105.445 110.141 104.836 110.141C103.805 110.141 102.855 110.229 101.988 110.404C100.699 110.662 99.6973 111.072 98.9824 111.635C98.2793 112.186 97.9277 112.982 97.9277 114.025C97.9277 115.9 98.9473 116.838 100.986 116.838C102.041 116.838 103.025 116.557 103.939 115.994C104.689 115.525 105.451 114.816 106.225 113.867Z" fill="#411611"/>
</svg>
